{"title":"The.Bullet.Vanishes.2012.720p.WEB-DL.x264.AAC-LeTV","uid":7688206,"size":886634973,"categoryP":"video","categoryS":"hd___movies","magnet":"?xt=urn:btih:cf6b31e13facaea872aafb360fe65ee8103ca698&amp;dn=The.Bullet.Vanishes.2012.720p.WEB-DL.x264.AAC-LeTV&amp;tr=udp%3A%2F%2Ftracker.openbittorrent.com%3A80&amp;tr=udp%3A%2F%2Fopen.demonii.com%3A1337&amp;tr=udp%3A%2F%2Ftracker.coppersurfer.tk%3A6969&amp;tr=udp%3A%2F%2Fexodus.desync.com%3A6969","seeders":3,"leechers":2,"uploader":"xxbel","files":-1,"time":1349021008,"description":"     General\n    Format : Flash Video\n    File size : 846 MiB\n    Duration : 1h 47mn\n    Overall bit rate : 1 098 Kbps\n    Tagging application : Yet Another Metadata Injector for FLV - Version 1.8\n    Video\n    Format : AVC\n    Format/Info : Advanced Video Codec\n    Format profile : &lt;a class=&quot;__cf_email__&quot; href=&quot;/cdn-cgi/l/email-protection&quot; data-cfemail=&quot;86ceefe1eec6cab5a8b7&quot;&gt;[email&amp;#160;protected]&lt;/a&gt;&lt;script cf-hash='f9e31' type=&quot;text/javascript&quot;&gt;\n/* &lt;![CDATA[ */!function(){try{var t=&quot;currentScript&quot;in document?document.currentScript:function(){for(var t=document.getElementsByTagName(&quot;script&quot;),e=t.length;e--;)if(t[e].getAttribute(&quot;cf-hash&quot;))return t[e]}();if(t&amp;&amp;t.previousSibling){var e,r,n,i,c=t.previousSibling,a=c.getAttribute(&quot;data-cfemail&quot;);if(a){for(e=&quot;&quot;,r=parseInt(a.substr(0,2),16),n=2;a.length-n;n+=2)i=parseInt(a.substr(n,2),16)^r,e+=String.fromCharCode(i);e=document.createTextNode(e),c.parentNode.replaceChild(e,c)}}}catch(u){}}();/* ]]&gt; */&lt;/script&gt;\n    Format settings, CABAC : Yes\n    Format settings, ReFrames : 4 frames\n    Codec ID : 7\n    Duration : 1h 47mn\n    Bit rate : 938 Kbps\n    Width : 1 024 pixels\n    Height : 432 pixels\n    Display aspect ratio : 2.35:1\n    Frame rate mode : Constant\n    Frame rate : 25.000 fps\n    Color space : YUV\n    Chroma subsampling : 4:2:0\n    Bit depth : 8 bits\n    Scan type : Progressive\n    Bits/(Pixel*Frame) : 0.085\n    Stream size : 742 MiB (88%)\n    Writing library : www.letv.com :: H.264/MPEG-4 AVC codec -V 1.6.00\n    Color primaries : BT.709-5, BT.1361, IEC 61966-2-4, SMPTE RP177\n    Transfer characteristics : BT.709-5, BT.1361\n    Matrix coefficients : BT.709-5, BT.1361, IEC 61966-2-4 709, SMPTE RP177\n    Audio\n    Format : AAC\n    Format/Info : Advanced Audio Codec\n    Format profile : LC\n    Codec ID : 10\n    Duration : 1h 47mn\n    Bit rate : 126 Kbps\n    Channel(s) : 2 channels\n    Channel positions : Front: L R\n    Sampling rate : 44.1 KHz\n    Compression mode : Lossy\n    Stream size : 102 MiB (12%)","torrent":{"xt":"urn:btih:cf6b31e13facaea872aafb360fe65ee8103ca698","amp;dn":"The.Bullet.Vanishes.2012.720p.WEB-DL.x264.AAC-LeTV","amp;tr":["udp%3A%2F%2Ftracker.openbittorrent.com%3A80","udp%3A%2F%2Fopen.demonii.com%3A1337","udp%3A%2F%2Ftracker.coppersurfer.tk%3A6969","udp%3A%2F%2Fexodus.desync.com%3A6969"],"infoHash":"cf6b31e13facaea872aafb360fe65ee8103ca698","infoHashBuffer":{"type":"Buffer","data":[207,107,49,225,63,172,174,168,114,170,251,54,15,230,94,232,16,60,166,152]},"announce":[],"urlList":[]}}